<svg width="157" height="18" viewBox="0 0 157 18" fill="none" xmlns="http://www.w3.org/2000/svg">
<path d="M149.508 17.28V4.32003H152.064V7.47603L151.752 7.06803C151.912 6.63603 152.124 6.24403 152.388 5.89203C152.66 5.53203 152.984 5.23603 153.36 5.00403C153.68 4.78803 154.032 4.62003 154.416 4.50003C154.808 4.37203 155.208 4.29603 155.616 4.27203C156.024 4.24003 156.42 4.25603 156.804 4.32003V7.02003C156.42 6.90803 155.976 6.87203 155.472 6.91203C154.976 6.95203 154.528 7.09203 154.128 7.33203C153.728 7.54803 153.4 7.82403 153.144 8.16003C152.896 8.49603 152.712 8.88003 152.592 9.31203C152.472 9.73603 152.412 10.196 152.412 10.692V17.28H149.508Z" fill="#3B28CC"/>
<path d="M139.892 17.64C138.7 17.64 137.66 17.34 136.772 16.74C135.884 16.14 135.196 15.324 134.708 14.292C134.22 13.26 133.976 12.096 133.976 10.8C133.976 9.48803 134.22 8.32003 134.708 7.29603C135.204 6.26403 135.904 5.45203 136.808 4.86003C137.712 4.26003 138.776 3.96003 140 3.96003C141.232 3.96003 142.264 4.26003 143.096 4.86003C143.936 5.45203 144.572 6.26403 145.004 7.29603C145.436 8.32803 145.652 9.49603 145.652 10.8C145.652 12.088 145.436 13.252 145.004 14.292C144.572 15.324 143.928 16.14 143.072 16.74C142.216 17.34 141.156 17.64 139.892 17.64ZM140.336 15.048C141.112 15.048 141.736 14.872 142.208 14.52C142.688 14.16 143.036 13.66 143.252 13.02C143.476 12.38 143.588 11.64 143.588 10.8C143.588 9.95203 143.476 9.21203 143.252 8.58003C143.036 7.94003 142.696 7.44403 142.232 7.09203C141.768 6.73203 141.168 6.55203 140.432 6.55203C139.656 6.55203 139.016 6.74403 138.512 7.12803C138.008 7.50403 137.636 8.01603 137.396 8.66403C137.156 9.30403 137.036 10.016 137.036 10.8C137.036 11.592 137.152 12.312 137.384 12.96C137.624 13.6 137.988 14.108 138.476 14.484C138.964 14.86 139.584 15.048 140.336 15.048ZM143.588 17.28V8.18403H143.228V3.05176e-05H146.144V17.28H143.588Z" fill="#3B28CC"/>
<path d="M128.847 17.28V11.04C128.847 10.632 128.819 10.18 128.763 9.68403C128.707 9.18803 128.575 8.71203 128.367 8.25603C128.167 7.79203 127.863 7.41203 127.455 7.11603C127.055 6.82003 126.511 6.67203 125.823 6.67203C125.455 6.67203 125.091 6.73203 124.731 6.85203C124.371 6.97203 124.043 7.18003 123.747 7.47603C123.459 7.76403 123.227 8.16403 123.051 8.67603C122.875 9.18003 122.787 9.82803 122.787 10.62L121.071 9.88803C121.071 8.78403 121.283 7.78403 121.707 6.88803C122.139 5.99203 122.771 5.28003 123.603 4.75203C124.435 4.21603 125.459 3.94803 126.675 3.94803C127.635 3.94803 128.427 4.10803 129.051 4.42803C129.675 4.74803 130.171 5.15603 130.539 5.65203C130.907 6.14803 131.179 6.67603 131.355 7.23603C131.531 7.79603 131.643 8.32803 131.691 8.83203C131.747 9.32803 131.775 9.73203 131.775 10.044V17.28H128.847ZM119.859 17.28V4.32003H122.439V8.34003H122.787V17.28H119.859Z" fill="#3B28CC"/>
<path d="M111.689 17.64C110.377 17.64 109.225 17.356 108.233 16.788C107.241 16.22 106.465 15.432 105.905 14.424C105.353 13.416 105.077 12.256 105.077 10.944C105.077 9.52802 105.349 8.30002 105.893 7.26002C106.437 6.21202 107.193 5.40002 108.161 4.82402C109.129 4.24802 110.249 3.96002 111.521 3.96002C112.865 3.96002 114.005 4.27602 114.941 4.90802C115.885 5.53202 116.585 6.41602 117.041 7.56002C117.497 8.70402 117.669 10.052 117.557 11.604H114.689V10.548C114.681 9.14002 114.433 8.11202 113.945 7.46402C113.457 6.81602 112.689 6.49202 111.641 6.49202C110.457 6.49202 109.577 6.86002 109.001 7.59602C108.425 8.32402 108.137 9.39202 108.137 10.8C108.137 12.112 108.425 13.128 109.001 13.848C109.577 14.568 110.417 14.928 111.521 14.928C112.233 14.928 112.845 14.772 113.357 14.46C113.877 14.14 114.277 13.68 114.557 13.08L117.413 13.944C116.917 15.112 116.149 16.02 115.109 16.668C114.077 17.316 112.937 17.64 111.689 17.64ZM107.225 11.604V9.42002H116.141V11.604H107.225Z" fill="#3B28CC"/>
<path d="M99.9862 17.28V9.40803C99.9862 8.52003 99.7662 7.82803 99.3262 7.33203C98.8862 6.82803 98.2902 6.57603 97.5382 6.57603C97.0742 6.57603 96.6582 6.68403 96.2902 6.90003C95.9222 7.10803 95.6302 7.42003 95.4142 7.83603C95.1982 8.24403 95.0902 8.73203 95.0902 9.30003L93.8062 8.54403C93.7982 7.64803 93.9982 6.86003 94.4062 6.18003C94.8222 5.49203 95.3822 4.95603 96.0862 4.57203C96.7902 4.18803 97.5742 3.99603 98.4382 3.99603C99.8702 3.99603 100.966 4.42803 101.726 5.29203C102.494 6.14803 102.878 7.27603 102.878 8.67603V17.28H99.9862ZM84.3982 17.28V4.32003H86.9542V8.34003H87.3142V17.28H84.3982ZM92.2102 17.28V9.44403C92.2102 8.54003 91.9902 7.83603 91.5502 7.33203C91.1102 6.82803 90.5102 6.57603 89.7502 6.57603C89.0142 6.57603 88.4222 6.82803 87.9742 7.33203C87.5342 7.83603 87.3142 8.49203 87.3142 9.30003L86.0182 8.43603C86.0182 7.59603 86.2262 6.84003 86.6422 6.16803C87.0582 5.49603 87.6182 4.96803 88.3222 4.58403C89.0342 4.19203 89.8302 3.99603 90.7102 3.99603C91.6782 3.99603 92.4862 4.20403 93.1342 4.62003C93.7902 5.02803 94.2782 5.58803 94.5982 6.30003C94.9262 7.00403 95.0902 7.80003 95.0902 8.68803V17.28H92.2102Z" fill="#3B28CC"/>
<path d="M78.4003 17.28V9.40803C78.4003 8.52003 78.1803 7.82803 77.7403 7.33203C77.3003 6.82803 76.7043 6.57603 75.9523 6.57603C75.4883 6.57603 75.0723 6.68403 74.7043 6.90003C74.3363 7.10803 74.0443 7.42003 73.8283 7.83603C73.6123 8.24403 73.5043 8.73203 73.5043 9.30003L72.2203 8.54403C72.2123 7.64803 72.4123 6.86003 72.8203 6.18003C73.2363 5.49203 73.7963 4.95603 74.5003 4.57203C75.2043 4.18803 75.9883 3.99603 76.8523 3.99603C78.2843 3.99603 79.3803 4.42803 80.1403 5.29203C80.9083 6.14803 81.2923 7.27603 81.2923 8.67603V17.28H78.4003ZM62.8123 17.28V4.32003H65.3683V8.34003H65.7283V17.28H62.8123ZM70.6243 17.28V9.44403C70.6243 8.54003 70.4043 7.83603 69.9643 7.33203C69.5243 6.82803 68.9243 6.57603 68.1643 6.57603C67.4283 6.57603 66.8363 6.82803 66.3883 7.33203C65.9483 7.83603 65.7283 8.49203 65.7283 9.30003L64.4323 8.43603C64.4323 7.59603 64.6403 6.84003 65.0563 6.16803C65.4723 5.49603 66.0323 4.96803 66.7363 4.58403C67.4483 4.19203 68.2443 3.99603 69.1243 3.99603C70.0923 3.99603 70.9003 4.20403 71.5483 4.62003C72.2043 5.02803 72.6923 5.58803 73.0123 6.30003C73.3403 7.00403 73.5043 7.80003 73.5043 8.68803V17.28H70.6243Z" fill="#3B28CC"/>
<path d="M53.7243 17.64C52.4283 17.64 51.2963 17.348 50.3283 16.764C49.3603 16.18 48.6083 15.376 48.0723 14.352C47.5443 13.32 47.2803 12.136 47.2803 10.8C47.2803 9.44002 47.5523 8.24802 48.0963 7.22402C48.6403 6.20002 49.3963 5.40002 50.3643 4.82402C51.3323 4.24802 52.4523 3.96002 53.7243 3.96002C55.0283 3.96002 56.1643 4.25202 57.1323 4.83602C58.1003 5.42002 58.8523 6.22802 59.3883 7.26002C59.9243 8.28402 60.1923 9.46402 60.1923 10.8C60.1923 12.144 59.9203 13.332 59.3763 14.364C58.8403 15.388 58.0883 16.192 57.1203 16.776C56.1523 17.352 55.0203 17.64 53.7243 17.64ZM53.7243 14.928C54.8763 14.928 55.7323 14.544 56.2923 13.776C56.8523 13.008 57.1323 12.016 57.1323 10.8C57.1323 9.54402 56.8483 8.54402 56.2803 7.80002C55.7123 7.04802 54.8603 6.67202 53.7243 6.67202C52.9483 6.67202 52.3083 6.84802 51.8043 7.20002C51.3083 7.54402 50.9403 8.02802 50.7003 8.65202C50.4603 9.26802 50.3403 9.98402 50.3403 10.8C50.3403 12.056 50.6243 13.06 51.1923 13.812C51.7683 14.556 52.6123 14.928 53.7243 14.928Z" fill="#3B28CC"/>
<path d="M40.1751 17.64C38.8391 17.64 37.6992 17.344 36.7551 16.752C35.8111 16.152 35.0871 15.336 34.5831 14.304C34.0871 13.272 33.8351 12.104 33.8271 10.8C33.8351 9.47202 34.0952 8.29602 34.6072 7.27202C35.1272 6.24002 35.8632 5.43202 36.8152 4.84802C37.7672 4.25602 38.8992 3.96002 40.2112 3.96002C41.6832 3.96002 42.9271 4.33202 43.9431 5.07602C44.9671 5.81202 45.6352 6.82002 45.9472 8.10002L43.0672 8.88002C42.8432 8.18402 42.4711 7.64402 41.9511 7.26002C41.4311 6.86802 40.8391 6.67202 40.1751 6.67202C39.4231 6.67202 38.8032 6.85202 38.3152 7.21202C37.8272 7.56402 37.4671 8.05202 37.2351 8.67602C37.0031 9.30002 36.8871 10.008 36.8871 10.8C36.8871 12.032 37.1631 13.028 37.7151 13.788C38.2671 14.548 39.0871 14.928 40.1751 14.928C40.9431 14.928 41.5471 14.752 41.9871 14.4C42.4351 14.048 42.7712 13.54 42.9952 12.876L45.9472 13.536C45.5472 14.856 44.8471 15.872 43.8471 16.584C42.8471 17.288 41.6231 17.64 40.1751 17.64Z" fill="#3B28CC"/>
<path d="M24.2291 10.848V8.58003H31.4291V10.848H24.2291Z" fill="#F87060"/>
<path d="M15.9236 17.64C14.6116 17.64 13.4596 17.356 12.4676 16.788C11.4756 16.22 10.6996 15.432 10.1396 14.424C9.58758 13.416 9.31158 12.256 9.31158 10.944C9.31158 9.52802 9.58358 8.30002 10.1276 7.26002C10.6716 6.21202 11.4276 5.40002 12.3956 4.82402C13.3636 4.24802 14.4836 3.96002 15.7556 3.96002C17.0996 3.96002 18.2396 4.27602 19.1756 4.90802C20.1196 5.53202 20.8196 6.41602 21.2756 7.56002C21.7316 8.70402 21.9036 10.052 21.7916 11.604H18.9236V10.548C18.9156 9.14002 18.6676 8.11202 18.1796 7.46402C17.6916 6.81602 16.9236 6.49202 15.8756 6.49202C14.6916 6.49202 13.8116 6.86002 13.2356 7.59602C12.6596 8.32402 12.3716 9.39202 12.3716 10.8C12.3716 12.112 12.6596 13.128 13.2356 13.848C13.8116 14.568 14.6516 14.928 15.7556 14.928C16.4676 14.928 17.0796 14.772 17.5916 14.46C18.1116 14.14 18.5116 13.68 18.7916 13.08L21.6476 13.944C21.1516 15.112 20.3836 16.02 19.3436 16.668C18.3116 17.316 17.1716 17.64 15.9236 17.64ZM11.4596 11.604V9.42002H20.3756V11.604H11.4596Z" fill="#F87060"/>
<path d="M0.679993 17.28V4.32003H3.23599V7.47603L2.92399 7.06803C3.08399 6.63603 3.29599 6.24403 3.55999 5.89203C3.83199 5.53203 4.15599 5.23603 4.53199 5.00403C4.85199 4.78803 5.20399 4.62003 5.58799 4.50003C5.97999 4.37203 6.37999 4.29603 6.78799 4.27203C7.19599 4.24003 7.59199 4.25603 7.97599 4.32003V7.02003C7.59199 6.90803 7.14799 6.87203 6.64399 6.91203C6.14799 6.95203 5.69999 7.09203 5.29999 7.33203C4.89999 7.54803 4.57199 7.82403 4.31599 8.16003C4.06799 8.49603 3.88399 8.88003 3.76399 9.31203C3.64399 9.73603 3.58399 10.196 3.58399 10.692V17.28H0.679993Z" fill="#F87060"/>
</svg>
